name rise38.3101peak57.3503fall81.6963.mot
datacolumns 19
datarows 11
range 4.14332100000000 4.15998700000000
endheader
time	ground_force1_vx	ground_force1_vy	ground_force1_vz	ground_force1_px	ground_force1_py	ground_force1_pz	ground_force2_vx	ground_force2_vy	ground_force2_vz	ground_force2_px	ground_force2_py	ground_force2_pz	ground_torque1_x	ground_torque1_y	ground_torque1_z	ground_torque2_x	ground_torque2_y	ground_torque2_z	
4.14332100000000	-7.69753300000000	41.84904300000000	-13.91559900000000	0.35019200000000	0.00000000000000	0.08331100000000	-60.51763800000000	784.08380099999999	-51.89314200000000	0.15827500000000	0.00000000000000	-0.08873400000000	0.00000000000000	-10.69376000000000	0.00000000000000	0.00000000000000	-25.98107000000000	0.00000000000000	
4.14499700000000	-8.34143300000000	49.01898500000000	-15.66179000000000	0.35460700000000	0.00000000000000	0.08447500000000	-60.67824400000000	780.37468400000000	-51.27054200000000	0.15763900000000	0.00000000000000	-0.08862900000000	0.00000000000000	-12.14206300000000	0.00000000000000	0.00000000000000	-25.76646100000000	0.00000000000000	
4.14665500000000	-8.81213200000000	56.27711600000000	-17.25459600000000	0.35876200000000	0.00000000000000	0.08553600000000	-60.83988400000000	776.55402400000003	-50.62132300000000	0.15700500000000	0.00000000000000	-0.08851700000000	0.00000000000000	-13.49564900000000	0.00000000000000	0.00000000000000	-25.54749900000000	0.00000000000000	
4.14832100000000	-9.08827100000000	63.53202900000000	-18.65772000000000	0.36269000000000	0.00000000000000	0.08650700000000	-61.00262500000000	772.62210800000003	-49.94581400000000	0.15637200000000	0.00000000000000	-0.08839800000000	0.00000000000000	-14.72477600000000	0.00000000000000	0.00000000000000	-25.32430900000000	0.00000000000000	
4.15000000000000	-9.15779700000000	70.71573200000000	-19.84720700000000	0.36641600000000	0.00000000000000	0.08740100000000	-61.16649000000000	768.57914000000005	-49.24438500000000	0.15574200000000	0.00000000000000	-0.08827400000000	0.00000000000000	-15.80873800000000	0.00000000000000	0.00000000000000	-25.09701700000000	0.00000000000000	
4.15165200000000	-9.01773300000000	77.78572500000000	-20.81160500000000	0.36996000000000	0.00000000000000	0.08823000000000	-61.33145700000000	764.42524000000003	-48.51745400000000	0.15511600000000	0.00000000000000	-0.08814400000000	0.00000000000000	-16.73621800000000	0.00000000000000	0.00000000000000	-24.86574700000000	0.00000000000000	
4.15332400000000	-8.67324900000000	84.72463100000000	-21.55107900000000	0.37333900000000	0.00000000000000	0.08900000000000	-61.49746100000000	760.16043900000000	-47.76548700000000	0.15449200000000	0.00000000000000	-0.08800700000000	0.00000000000000	-17.50483100000000	0.00000000000000	0.00000000000000	-24.63062200000000	0.00000000000000	
4.15499700000000	-8.13621900000000	91.53781600000001	-22.07572100000000	0.37656800000000	0.00000000000000	0.08971900000000	-61.66438700000000	755.78467999999998	-46.98899300000000	0.15387300000000	0.00000000000000	-0.08786400000000	0.00000000000000	-18.11999000000000	0.00000000000000	0.00000000000000	-24.39176400000000	0.00000000000000	
4.15666000000000	-7.42348600000000	98.24954099999999	-22.40333800000000	0.37965800000000	0.00000000000000	0.09039300000000	-61.83207000000000	751.29781200000002	-46.18852800000000	0.15325900000000	0.00000000000000	-0.08771400000000	0.00000000000000	-18.59334300000000	0.00000000000000	0.00000000000000	-24.14929200000000	0.00000000000000	
4.15832600000000	-6.55501200000000	104.89822100000001	-22.55699200000000	0.38262000000000	0.00000000000000	0.09102600000000	-62.00029300000000	746.69959300000005	-45.36469600000000	0.15264900000000	0.00000000000000	-0.08755800000000	0.00000000000000	-18.94094700000000	0.00000000000000	0.00000000000000	-23.90332600000000	0.00000000000000	
4.15998700000000	-5.55209800000000	111.53134300000001	-22.56254100000000	0.38546000000000	0.00000000000000	0.09162400000000	-62.16878400000000	741.98969099999999	-44.51814800000000	0.15204500000000	0.00000000000000	-0.08739500000000	0.00000000000000	-19.18140300000000	0.00000000000000	0.00000000000000	-23.65397900000000	0.00000000000000	
